<?xml version="1.0" encoding="UTF-8" standalone="no"?>
<!DOCTYPE svg PUBLIC "-//W3C//DTD SVG 1.1//EN"
 "http://www.w3.org/Graphics/SVG/1.1/DTD/svg11.dtd">
<!-- Generated by graphviz version 11.0.0 (20240428.1522)
 -->
<!-- Title: G Pages: 1 -->
<svg width="412pt" height="232pt"
 viewBox="0.00 0.00 412.00 232.47" xmlns="http://www.w3.org/2000/svg" xmlns:xlink="http://www.w3.org/1999/xlink">
<g id="graph0" class="graph" transform="scale(1 1) rotate(0) translate(4 228.47)">
<title>G</title>
<polygon fill="white" stroke="none" points="-4,4 -4,-228.47 408,-228.47 408,4 -4,4"/>
<g id="clust1" class="cluster">
<title>cluster_G</title>
<path fill="#808080" fill-opacity="0.094118" stroke="black" d="M20,-8C20,-8 384,-8 384,-8 390,-8 396,-14 396,-20 396,-20 396,-204.47 396,-204.47 396,-210.47 390,-216.47 384,-216.47 384,-216.47 20,-216.47 20,-216.47 14,-216.47 8,-210.47 8,-204.47 8,-204.47 8,-20 8,-20 8,-14 14,-8 20,-8"/>
</g>
<g id="clust2" class="cluster">
<title>cluster_BitcoinWrapper</title>
<path fill="#808080" fill-opacity="0.094118" stroke="black" d="M28,-16C28,-16 226,-16 226,-16 232,-16 238,-22 238,-28 238,-28 238,-196.47 238,-196.47 238,-202.47 232,-208.47 226,-208.47 226,-208.47 28,-208.47 28,-208.47 22,-208.47 16,-202.47 16,-196.47 16,-196.47 16,-28 16,-28 16,-22 22,-16 28,-16"/>
<text text-anchor="middle" x="127" y="-191.17" font-family="Times,serif" font-size="14.00">BitcoinWrapper</text>
</g>
<!-- BitcoinWrapper -->
<g id="node1" class="node">
<title>BitcoinWrapper</title>
<ellipse fill="#ffffff" fill-opacity="0.698039" stroke="black" cx="318" cy="-146.97" rx="70.29" ry="18"/>
<text text-anchor="middle" x="318" y="-141.92" font-family="Times,serif" font-size="14.00" fill="#000000">BitcoinWrapper</text>
</g>
<!-- BitcoinWrapper__hash_to_point -->
<g id="node2" class="node">
<title>BitcoinWrapper__hash_to_point</title>
<ellipse fill="#fecccc" fill-opacity="0.698039" stroke="black" cx="127" cy="-52.99" rx="103.06" ry="28.99"/>
<text text-anchor="middle" x="127" y="-56.19" font-family="Times,serif" font-size="14.00" fill="#000000">hash_to_point</text>
<text text-anchor="middle" x="127" y="-39.69" font-family="Times,serif" font-size="14.00" fill="#000000">(BitcoinWrapper.py:41)</text>
</g>
<!-- BitcoinWrapper__verify -->
<g id="node3" class="node">
<title>BitcoinWrapper__verify</title>
<ellipse fill="#fecccc" fill-opacity="0.698039" stroke="black" cx="127" cy="-146.97" rx="103.06" ry="28.99"/>
<text text-anchor="middle" x="127" y="-150.17" font-family="Times,serif" font-size="14.00" fill="#000000">verify</text>
<text text-anchor="middle" x="127" y="-133.67" font-family="Times,serif" font-size="14.00" fill="#000000">(BitcoinWrapper.py:69)</text>
</g>
<!-- BitcoinWrapper__verify&#45;&gt;BitcoinWrapper__hash_to_point -->
<g id="edge1" class="edge">
<title>BitcoinWrapper__verify&#45;&gt;BitcoinWrapper__hash_to_point</title>
<path fill="none" stroke="#000000" d="M127,-117.63C127,-110.11 127,-101.85 127,-93.84"/>
<polygon fill="#000000" stroke="#000000" points="130.5,-93.92 127,-83.92 123.5,-93.92 130.5,-93.92"/>
</g>
</g>
</svg>

