<?xml version="1.0" encoding="UTF-8" standalone="no"?>
<!DOCTYPE svg PUBLIC "-//W3C//DTD SVG 1.1//EN"
 "http://www.w3.org/Graphics/SVG/1.1/DTD/svg11.dtd">
<!-- Generated by graphviz version 11.0.0 (20240428.1522)
 -->
<!-- Title: G Pages: 1 -->
<svg width="752pt" height="276pt"
 viewBox="0.00 0.00 752.00 276.47" xmlns="http://www.w3.org/2000/svg" xmlns:xlink="http://www.w3.org/1999/xlink">
<g id="graph0" class="graph" transform="scale(1 1) rotate(0) translate(4 272.47)">
<title>G</title>
<polygon fill="white" stroke="none" points="-4,4 -4,-272.47 748,-272.47 748,4 -4,4"/>
<g id="clust1" class="cluster">
<title>cluster_G</title>
<path fill="#808080" fill-opacity="0.094118" stroke="black" d="M20,-8C20,-8 724,-8 724,-8 730,-8 736,-14 736,-20 736,-20 736,-248.47 736,-248.47 736,-254.47 730,-260.47 724,-260.47 724,-260.47 20,-260.47 20,-260.47 14,-260.47 8,-254.47 8,-248.47 8,-248.47 8,-20 8,-20 8,-14 14,-8 20,-8"/>
</g>
<g id="clust2" class="cluster">
<title>cluster_Person</title>
<path fill="#808080" fill-opacity="0.094118" stroke="black" d="M28,-109.98C28,-109.98 146,-109.98 146,-109.98 152,-109.98 158,-115.98 158,-121.98 158,-121.98 158,-196.47 158,-196.47 158,-202.47 152,-208.47 146,-208.47 146,-208.47 28,-208.47 28,-208.47 22,-208.47 16,-202.47 16,-196.47 16,-196.47 16,-121.98 16,-121.98 16,-115.98 22,-109.98 28,-109.98"/>
<text text-anchor="middle" x="87" y="-191.17" font-family="Times,serif" font-size="14.00">Person</text>
</g>
<g id="clust3" class="cluster">
<title>cluster_Person__Person</title>
<path fill="#808080" fill-opacity="0.094118" stroke="black" d="M178,-16C178,-16 704,-16 704,-16 710,-16 716,-22 716,-28 716,-28 716,-196.47 716,-196.47 716,-202.47 710,-208.47 704,-208.47 704,-208.47 178,-208.47 178,-208.47 172,-208.47 166,-202.47 166,-196.47 166,-196.47 166,-28 166,-28 166,-22 172,-16 178,-16"/>
<text text-anchor="middle" x="441" y="-191.17" font-family="Times,serif" font-size="14.00">Person.Person</text>
</g>
<!-- Person -->
<g id="node1" class="node">
<title>Person</title>
<ellipse fill="#ffffff" fill-opacity="0.698039" stroke="black" cx="420" cy="-234.47" rx="36" ry="18"/>
<text text-anchor="middle" x="420" y="-229.42" font-family="Times,serif" font-size="14.00" fill="#000000">Person</text>
</g>
<!-- Person__Person -->
<g id="node2" class="node">
<title>Person__Person</title>
<ellipse fill="#fecccc" fill-opacity="0.698039" stroke="black" cx="87" cy="-146.97" rx="63.29" ry="28.99"/>
<text text-anchor="middle" x="87" y="-150.17" font-family="Times,serif" font-size="14.00" fill="#000000">Person</text>
<text text-anchor="middle" x="87" y="-133.67" font-family="Times,serif" font-size="14.00" fill="#000000">(Person.py:4)</text>
</g>
<!-- Person&#45;&gt;Person__Person -->
<g id="edge1" class="edge">
<title>Person&#45;&gt;Person__Person</title>
<path fill="none" stroke="#000000" d="M383.84,-232.51C322.59,-230.48 201.27,-224.5 162,-208.47 146.8,-202.26 132.22,-191.91 120.03,-181.52"/>
<polygon fill="#000000" stroke="#000000" points="122.53,-179.06 112.73,-175.01 117.87,-184.28 122.53,-179.06"/>
</g>
<!-- Person__Person____init__ -->
<g id="node3" class="node">
<title>Person__Person____init__</title>
<ellipse fill="#ff9999" fill-opacity="0.698039" stroke="black" cx="237" cy="-146.97" rx="63.29" ry="28.99"/>
<text text-anchor="middle" x="237" y="-150.17" font-family="Times,serif" font-size="14.00" fill="#000000">__init__</text>
<text text-anchor="middle" x="237" y="-133.67" font-family="Times,serif" font-size="14.00" fill="#000000">(Person.py:5)</text>
</g>
<!-- Person&#45;&gt;Person__Person____init__ -->
<g id="edge4" class="edge">
<title>Person&#45;&gt;Person__Person____init__</title>
<path fill="none" stroke="#000000" d="M384.81,-229.89C362.24,-226.57 332.81,-220.26 309,-208.47 295.13,-201.59 281.65,-191.51 270.19,-181.54"/>
<polygon fill="#000000" stroke="#000000" points="272.72,-179.11 262.96,-175.01 268.03,-184.31 272.72,-179.11"/>
</g>
<!-- Person__Person__calculate_hash160 -->
<g id="node4" class="node">
<title>Person__Person__calculate_hash160</title>
<ellipse fill="#ff9999" fill-opacity="0.698039" stroke="black" cx="523" cy="-52.99" rx="81.85" ry="28.99"/>
<text text-anchor="middle" x="523" y="-56.19" font-family="Times,serif" font-size="14.00" fill="#000000">calculate_hash160</text>
<text text-anchor="middle" x="523" y="-39.69" font-family="Times,serif" font-size="14.00" fill="#000000">(Person.py:11)</text>
</g>
<!-- Person&#45;&gt;Person__Person__calculate_hash160 -->
<g id="edge3" class="edge">
<title>Person&#45;&gt;Person__Person__calculate_hash160</title>
<path fill="none" stroke="#000000" d="M456.16,-233.1C531.48,-231.96 699.66,-227.32 717,-208.47 746.62,-176.24 743.31,-144.96 717,-109.98 703.32,-91.8 653.64,-77.66 607.99,-68.14"/>
<polygon fill="#000000" stroke="#000000" points="608.77,-64.73 598.28,-66.18 607.39,-71.59 608.77,-64.73"/>
</g>
<!-- Person__Person__calculate_scriptPubKey -->
<g id="node5" class="node">
<title>Person__Person__calculate_scriptPubKey</title>
<ellipse fill="#ff9999" fill-opacity="0.698039" stroke="black" cx="420" cy="-146.97" rx="102" ry="28.99"/>
<text text-anchor="middle" x="420" y="-150.17" font-family="Times,serif" font-size="14.00" fill="#000000">calculate_scriptPubKey</text>
<text text-anchor="middle" x="420" y="-133.67" font-family="Times,serif" font-size="14.00" fill="#000000">(Person.py:22)</text>
</g>
<!-- Person&#45;&gt;Person__Person__calculate_scriptPubKey -->
<g id="edge5" class="edge">
<title>Person&#45;&gt;Person__Person__calculate_scriptPubKey</title>
<path fill="none" stroke="#000000" d="M420,-216.17C420,-207.96 420,-197.79 420,-187.82"/>
<polygon fill="#000000" stroke="#000000" points="423.5,-187.87 420,-177.87 416.5,-187.87 423.5,-187.87"/>
</g>
<!-- Person__Person__calculate_scriptSig -->
<g id="node6" class="node">
<title>Person__Person__calculate_scriptSig</title>
<ellipse fill="#ff9999" fill-opacity="0.698039" stroke="black" cx="624" cy="-146.97" rx="83.97" ry="28.99"/>
<text text-anchor="middle" x="624" y="-150.17" font-family="Times,serif" font-size="14.00" fill="#000000">calculate_scriptSig</text>
<text text-anchor="middle" x="624" y="-133.67" font-family="Times,serif" font-size="14.00" fill="#000000">(Person.py:16)</text>
</g>
<!-- Person&#45;&gt;Person__Person__calculate_scriptSig -->
<g id="edge2" class="edge">
<title>Person&#45;&gt;Person__Person__calculate_scriptSig</title>
<path fill="none" stroke="#000000" d="M454.48,-228.94C476.9,-225.21 506.43,-218.83 531,-208.47 548.49,-201.09 566.29,-190.43 581.58,-180.1"/>
<polygon fill="#000000" stroke="#000000" points="583.28,-183.19 589.5,-174.61 579.29,-177.43 583.28,-183.19"/>
</g>
<!-- Person__Person__calculate_scriptPubKey&#45;&gt;Person__Person__calculate_hash160 -->
<g id="edge6" class="edge">
<title>Person__Person__calculate_scriptPubKey&#45;&gt;Person__Person__calculate_hash160</title>
<path fill="none" stroke="#000000" d="M450.35,-118.87C461.22,-109.16 473.62,-98.09 485.06,-87.87"/>
<polygon fill="#000000" stroke="#000000" points="487.32,-90.54 492.45,-81.27 482.66,-85.32 487.32,-90.54"/>
</g>
</g>
</svg>

