<?xml version="1.0" encoding="UTF-8" standalone="no"?>
<!DOCTYPE svg PUBLIC "-//W3C//DTD SVG 1.1//EN"
 "http://www.w3.org/Graphics/SVG/1.1/DTD/svg11.dtd">
<!-- Generated by graphviz version 11.0.0 (20240428.1522)
 -->
<!-- Title: G Pages: 1 -->
<svg width="822pt" height="232pt"
 viewBox="0.00 0.00 822.00 232.47" xmlns="http://www.w3.org/2000/svg" xmlns:xlink="http://www.w3.org/1999/xlink">
<g id="graph0" class="graph" transform="scale(1 1) rotate(0) translate(4 228.47)">
<title>G</title>
<polygon fill="white" stroke="none" points="-4,4 -4,-228.47 818,-228.47 818,4 -4,4"/>
<g id="clust1" class="cluster">
<title>cluster_G</title>
<path fill="#808080" fill-opacity="0.094118" stroke="black" d="M20,-8C20,-8 794,-8 794,-8 800,-8 806,-14 806,-20 806,-20 806,-204.47 806,-204.47 806,-210.47 800,-216.47 794,-216.47 794,-216.47 20,-216.47 20,-216.47 14,-216.47 8,-210.47 8,-204.47 8,-204.47 8,-20 8,-20 8,-14 14,-8 20,-8"/>
</g>
<g id="clust2" class="cluster">
<title>cluster_Person</title>
<path fill="#808080" fill-opacity="0.094118" stroke="black" d="M28,-109.98C28,-109.98 146,-109.98 146,-109.98 152,-109.98 158,-115.98 158,-121.98 158,-121.98 158,-196.47 158,-196.47 158,-202.47 152,-208.47 146,-208.47 146,-208.47 28,-208.47 28,-208.47 22,-208.47 16,-202.47 16,-196.47 16,-196.47 16,-121.98 16,-121.98 16,-115.98 22,-109.98 28,-109.98"/>
<text text-anchor="middle" x="87" y="-191.17" font-family="Times,serif" font-size="14.00">Person</text>
</g>
<g id="clust3" class="cluster">
<title>cluster_Person__Person</title>
<path fill="#808080" fill-opacity="0.094118" stroke="black" d="M178,-16C178,-16 704,-16 704,-16 710,-16 716,-22 716,-28 716,-28 716,-196.47 716,-196.47 716,-202.47 710,-208.47 704,-208.47 704,-208.47 178,-208.47 178,-208.47 172,-208.47 166,-202.47 166,-196.47 166,-196.47 166,-28 166,-28 166,-22 172,-16 178,-16"/>
<text text-anchor="middle" x="441" y="-191.17" font-family="Times,serif" font-size="14.00">Person.Person</text>
</g>
<!-- Person -->
<g id="node1" class="node">
<title>Person</title>
<ellipse fill="#ffffff" fill-opacity="0.698039" stroke="black" cx="762" cy="-146.97" rx="36" ry="18"/>
<text text-anchor="middle" x="762" y="-141.92" font-family="Times,serif" font-size="14.00" fill="#000000">Person</text>
</g>
<!-- Person__Person -->
<g id="node2" class="node">
<title>Person__Person</title>
<ellipse fill="#fecccc" fill-opacity="0.698039" stroke="black" cx="87" cy="-146.97" rx="63.29" ry="28.99"/>
<text text-anchor="middle" x="87" y="-150.17" font-family="Times,serif" font-size="14.00" fill="#000000">Person</text>
<text text-anchor="middle" x="87" y="-133.67" font-family="Times,serif" font-size="14.00" fill="#000000">(Person.py:4)</text>
</g>
<!-- Person__Person____init__ -->
<g id="node3" class="node">
<title>Person__Person____init__</title>
<ellipse fill="#ff9999" fill-opacity="0.698039" stroke="black" cx="237" cy="-146.97" rx="63.29" ry="28.99"/>
<text text-anchor="middle" x="237" y="-150.17" font-family="Times,serif" font-size="14.00" fill="#000000">__init__</text>
<text text-anchor="middle" x="237" y="-133.67" font-family="Times,serif" font-size="14.00" fill="#000000">(Person.py:5)</text>
</g>
<!-- Person__Person__calculate_hash160 -->
<g id="node4" class="node">
<title>Person__Person__calculate_hash160</title>
<ellipse fill="#ff9999" fill-opacity="0.698039" stroke="black" cx="420" cy="-52.99" rx="81.85" ry="28.99"/>
<text text-anchor="middle" x="420" y="-56.19" font-family="Times,serif" font-size="14.00" fill="#000000">calculate_hash160</text>
<text text-anchor="middle" x="420" y="-39.69" font-family="Times,serif" font-size="14.00" fill="#000000">(Person.py:11)</text>
</g>
<!-- Person__Person__calculate_scriptPubKey -->
<g id="node5" class="node">
<title>Person__Person__calculate_scriptPubKey</title>
<ellipse fill="#ff9999" fill-opacity="0.698039" stroke="black" cx="420" cy="-146.97" rx="102" ry="28.99"/>
<text text-anchor="middle" x="420" y="-150.17" font-family="Times,serif" font-size="14.00" fill="#000000">calculate_scriptPubKey</text>
<text text-anchor="middle" x="420" y="-133.67" font-family="Times,serif" font-size="14.00" fill="#000000">(Person.py:22)</text>
</g>
<!-- Person__Person__calculate_scriptPubKey&#45;&gt;Person__Person__calculate_hash160 -->
<g id="edge1" class="edge">
<title>Person__Person__calculate_scriptPubKey&#45;&gt;Person__Person__calculate_hash160</title>
<path fill="none" stroke="#000000" d="M420,-117.63C420,-110.11 420,-101.85 420,-93.84"/>
<polygon fill="#000000" stroke="#000000" points="423.5,-93.92 420,-83.92 416.5,-93.92 423.5,-93.92"/>
</g>
<!-- Person__Person__calculate_scriptSig -->
<g id="node6" class="node">
<title>Person__Person__calculate_scriptSig</title>
<ellipse fill="#ff9999" fill-opacity="0.698039" stroke="black" cx="624" cy="-146.97" rx="83.97" ry="28.99"/>
<text text-anchor="middle" x="624" y="-150.17" font-family="Times,serif" font-size="14.00" fill="#000000">calculate_scriptSig</text>
<text text-anchor="middle" x="624" y="-133.67" font-family="Times,serif" font-size="14.00" fill="#000000">(Person.py:16)</text>
</g>
</g>
</svg>

