<?xml version="1.0" encoding="UTF-8" standalone="no"?>
<!DOCTYPE svg PUBLIC "-//W3C//DTD SVG 1.1//EN"
 "http://www.w3.org/Graphics/SVG/1.1/DTD/svg11.dtd">
<!-- Generated by graphviz version 11.0.0 (20240428.1522)
 -->
<!-- Title: G Pages: 1 -->
<svg width="527pt" height="276pt"
 viewBox="0.00 0.00 527.00 276.47" xmlns="http://www.w3.org/2000/svg" xmlns:xlink="http://www.w3.org/1999/xlink">
<g id="graph0" class="graph" transform="scale(1 1) rotate(0) translate(4 272.47)">
<title>G</title>
<polygon fill="white" stroke="none" points="-4,4 -4,-272.47 523,-272.47 523,4 -4,4"/>
<g id="clust1" class="cluster">
<title>cluster_G</title>
<path fill="#808080" fill-opacity="0.094118" stroke="black" d="M20,-8C20,-8 499,-8 499,-8 505,-8 511,-14 511,-20 511,-20 511,-248.47 511,-248.47 511,-254.47 505,-260.47 499,-260.47 499,-260.47 20,-260.47 20,-260.47 14,-260.47 8,-254.47 8,-248.47 8,-248.47 8,-20 8,-20 8,-14 14,-8 20,-8"/>
</g>
<g id="clust2" class="cluster">
<title>cluster_simulationsFalcon</title>
<path fill="#808080" fill-opacity="0.094118" stroke="black" d="M28,-16C28,-16 479,-16 479,-16 485,-16 491,-22 491,-28 491,-28 491,-196.47 491,-196.47 491,-202.47 485,-208.47 479,-208.47 479,-208.47 28,-208.47 28,-208.47 22,-208.47 16,-202.47 16,-196.47 16,-196.47 16,-28 16,-28 16,-22 22,-16 28,-16"/>
<text text-anchor="middle" x="253.5" y="-191.17" font-family="Times,serif" font-size="14.00">simulationsFalcon</text>
</g>
<!-- simulationsFalcon -->
<g id="node1" class="node">
<title>simulationsFalcon</title>
<ellipse fill="#ffffff" fill-opacity="0.698039" stroke="black" cx="370" cy="-234.47" rx="78.99" ry="18"/>
<text text-anchor="middle" x="370" y="-229.42" font-family="Times,serif" font-size="14.00" fill="#000000">simulationsFalcon</text>
</g>
<!-- simulationsFalcon__calculate_block_size -->
<g id="node2" class="node">
<title>simulationsFalcon__calculate_block_size</title>
<ellipse fill="#fecccc" fill-opacity="0.698039" stroke="black" cx="132" cy="-146.97" rx="107.83" ry="28.99"/>
<text text-anchor="middle" x="132" y="-150.17" font-family="Times,serif" font-size="14.00" fill="#000000">calculate_block_size</text>
<text text-anchor="middle" x="132" y="-133.67" font-family="Times,serif" font-size="14.00" fill="#000000">(simulationsFalcon.py:9)</text>
</g>
<!-- simulationsFalcon&#45;&gt;simulationsFalcon__calculate_block_size -->
<g id="edge1" class="edge">
<title>simulationsFalcon&#45;&gt;simulationsFalcon__calculate_block_size</title>
<path fill="none" stroke="#000000" d="M305.45,-223.72C286.63,-219.95 266.23,-214.94 248,-208.47 226.49,-200.82 204,-189.86 184.61,-179.36"/>
<polygon fill="#000000" stroke="#000000" points="186.54,-176.43 176.09,-174.67 183.16,-182.56 186.54,-176.43"/>
</g>
<!-- simulationsFalcon__calculate_transaction_size -->
<g id="node3" class="node">
<title>simulationsFalcon__calculate_transaction_size</title>
<ellipse fill="#fecccc" fill-opacity="0.698039" stroke="black" cx="253" cy="-52.99" rx="112.61" ry="28.99"/>
<text text-anchor="middle" x="253" y="-56.19" font-family="Times,serif" font-size="14.00" fill="#000000">calculate_transaction_size</text>
<text text-anchor="middle" x="253" y="-39.69" font-family="Times,serif" font-size="14.00" fill="#000000">(simulationsFalcon.py:15)</text>
</g>
<!-- simulationsFalcon&#45;&gt;simulationsFalcon__calculate_transaction_size -->
<g id="edge2" class="edge">
<title>simulationsFalcon&#45;&gt;simulationsFalcon__calculate_transaction_size</title>
<path fill="none" stroke="#000000" d="M441.43,-226.54C464.04,-222.77 485,-217.05 492,-208.47 517.42,-177.31 516.48,-149.88 492,-117.98 475.45,-96.42 416.88,-80.54 361.86,-70"/>
<polygon fill="#000000" stroke="#000000" points="362.51,-66.56 352.04,-68.17 361.23,-73.44 362.51,-66.56"/>
</g>
<!-- simulationsFalcon__simulate_transaction -->
<g id="node4" class="node">
<title>simulationsFalcon__simulate_transaction</title>
<ellipse fill="#fecccc" fill-opacity="0.698039" stroke="black" cx="370" cy="-146.97" rx="112.61" ry="28.99"/>
<text text-anchor="middle" x="370" y="-150.17" font-family="Times,serif" font-size="14.00" fill="#000000">simulate_transaction</text>
<text text-anchor="middle" x="370" y="-133.67" font-family="Times,serif" font-size="14.00" fill="#000000">(simulationsFalcon.py:28)</text>
</g>
<!-- simulationsFalcon&#45;&gt;simulationsFalcon__simulate_transaction -->
<g id="edge3" class="edge">
<title>simulationsFalcon&#45;&gt;simulationsFalcon__simulate_transaction</title>
<path fill="none" stroke="#000000" d="M370,-216.17C370,-207.96 370,-197.79 370,-187.82"/>
<polygon fill="#000000" stroke="#000000" points="373.5,-187.87 370,-177.87 366.5,-187.87 373.5,-187.87"/>
</g>
<!-- simulationsFalcon__calculate_block_size&#45;&gt;simulationsFalcon__calculate_transaction_size -->
<g id="edge4" class="edge">
<title>simulationsFalcon__calculate_block_size&#45;&gt;simulationsFalcon__calculate_transaction_size</title>
<path fill="none" stroke="#000000" d="M167.32,-119.12C180.37,-109.2 195.32,-97.84 209.04,-87.41"/>
<polygon fill="#000000" stroke="#000000" points="210.79,-90.47 216.64,-81.63 206.56,-84.9 210.79,-90.47"/>
</g>
</g>
</svg>

